<svg xmlns:mydata="http://www.w3.org/2000/svg" mydata:contrastcolor="ffffff" mydata:template="BlackAndHighlightColorHex1" mydata:presentation="2.5" mydata:layouttype="undefined" mydata:specialfontid="undefined" mydata:id1="556" mydata:id2="052" mydata:companyname="CAPBA" mydata:companytagline="Pradeep Bhattarai &amp; Associates Chartered Accountants" version="1.1" xmlns="http://www.w3.org/2000/svg" xmlns:xlink="http://www.w3.org/1999/xlink" viewBox="66.016129032258 185.0005031360677 417.96774193548396 99.99899372786464"><g fill="#000000" fill-rule="nonzero" stroke="none" stroke-width="1" stroke-linecap="butt" stroke-linejoin="miter" stroke-miterlimit="10" stroke-dasharray="" stroke-dashoffset="0" font-family="none" font-weight="none" font-size="none" text-anchor="none" style="mix-blend-mode: normal"><g data-paper-data="{&quot;isGlobalGroup&quot;:true,&quot;bounds&quot;:{&quot;x&quot;:66.016129032258,&quot;y&quot;:185.0005031360677,&quot;width&quot;:417.96774193548396,&quot;height&quot;:99.99899372786464}}"><g data-paper-data="{&quot;isSecondaryText&quot;:true}"><path d="M83.76548,276.84984v7.98376h1.46196v-2.44697h0.54953c1.89744,0 2.83061,-0.76727 2.83061,-2.41587v-0.73617c0,-1.69007 -0.90206,-2.38476 -2.83061,-2.38476zM85.21707,281.00762v-2.85134h0.58064c1.10943,0 1.35828,0.394 1.35828,1.15091v0.59101c0,0.7569 -0.34216,1.10943 -1.37901,1.10943z" data-paper-data="{&quot;glyphName&quot;:&quot;P&quot;,&quot;glyphIndex&quot;:0,&quot;firstGlyphOfWord&quot;:true,&quot;word&quot;:1}" style="fill: rgb(0,0,0);"></path><path d="M97.14433,284.8336l-1.75228,-3.03798c0.96427,-0.31106 1.37901,-0.9539 1.37901,-2.13592v-0.41474c0,-1.69007 -0.90206,-2.39513 -2.83061,-2.39513h-2.01149v7.98376h1.43086v-2.80987h0.52879l1.58638,2.80987zM93.34945,280.70693v-2.54029h0.61174c1.10943,0 1.30643,0.394 1.30643,1.15091v0.26958c0,0.7569 -0.29032,1.1198 -1.32717,1.1198z" data-paper-data="{&quot;glyphName&quot;:&quot;R&quot;,&quot;glyphIndex&quot;:1,&quot;word&quot;:1}" style="fill: rgb(0,0,0);"></path><path d="M103.24448,276.86021h-1.42049l-2.2085,7.97339h1.47233l0.41474,-1.41012h2.0426l0.40437,1.41012h1.47233zM101.8551,282.02373l0.66359,-2.95503l0.66359,2.95503z" data-paper-data="{&quot;glyphName&quot;:&quot;A&quot;,&quot;glyphIndex&quot;:2,&quot;word&quot;:1}" style="fill: rgb(0,0,0);"></path><path d="M108.41146,276.84984v7.98376h2.62324c1.89744,0 2.72692,-0.69469 2.72692,-2.34329v-3.25572c0,-1.69007 -0.79838,-2.38476 -2.72692,-2.38476zM109.83195,283.53754v-5.38126h1.22349c1.10943,0 1.27533,0.394 1.27533,1.15091v3.11056c0,0.7569 -0.25921,1.1198 -1.29607,1.1198z" data-paper-data="{&quot;glyphName&quot;:&quot;D&quot;,&quot;glyphIndex&quot;:3,&quot;word&quot;:1}" style="fill: rgb(0,0,0);"></path><path d="M117.19705,276.84984v7.99413h4.73842v-1.30643h-3.30756v-2.10481h2.69582v-1.2857h-2.69582v-2.05297h3.1624v-1.24422z" data-paper-data="{&quot;glyphName&quot;:&quot;E&quot;,&quot;glyphIndex&quot;:4,&quot;word&quot;:1}" style="fill: rgb(0,0,0);"></path><path d="M125.20501,276.84984v7.99413h4.73842v-1.30643h-3.30756v-2.10481h2.69582v-1.2857h-2.69582v-2.05297h3.1624v-1.24422z" data-paper-data="{&quot;glyphName&quot;:&quot;E&quot;,&quot;glyphIndex&quot;:5,&quot;word&quot;:1}" style="fill: rgb(0,0,0);"></path><path d="M133.21297,276.84984v7.98376h1.46196v-2.44697h0.54953c1.89744,0 2.83061,-0.76727 2.83061,-2.41587v-0.73617c0,-1.69007 -0.90206,-2.38476 -2.83061,-2.38476zM134.66456,281.00762v-2.85134h0.58064c1.10943,0 1.35828,0.394 1.35828,1.15091v0.59101c0,0.7569 -0.34216,1.10943 -1.37901,1.10943z" data-paper-data="{&quot;glyphName&quot;:&quot;P&quot;,&quot;glyphIndex&quot;:6,&quot;lastGlyphOfWord&quot;:true,&quot;word&quot;:1}" style="fill: rgb(0,0,0);"></path><path d="M145.76579,284.8336h2.6336c1.92855,0 2.83061,-0.68432 2.83061,-2.47808c0,-1.09906 -0.63248,-1.81449 -1.46196,-1.99076c0.63248,-0.42511 0.7258,-0.91243 0.7258,-1.39975c0,-1.24422 -0.91243,-2.11518 -2.35365,-2.11518h-2.37439zM147.18628,281.23572h1.21312c1.03685,0 1.29607,0.3629 1.29607,1.15091c0,0.7569 -0.1659,1.15091 -1.27533,1.15091h-1.23385zM148.14018,278.07332c0.70506,0 0.88132,0.50806 0.88132,0.91243c0,0.50806 -0.27995,0.93317 -0.87096,0.93317h-0.9539v-1.8456z" data-paper-data="{&quot;glyphName&quot;:&quot;B&quot;,&quot;glyphIndex&quot;:7,&quot;firstGlyphOfWord&quot;:true,&quot;word&quot;:2}" style="fill: rgb(0,0,0);"></path><path d="M159.83933,276.84984h-1.42049v3.39051h-2.48845v-3.39051h-1.44122v7.99413h1.44122v-3.29719h2.48845v3.28682h1.42049z" data-paper-data="{&quot;glyphName&quot;:&quot;H&quot;,&quot;glyphIndex&quot;:8,&quot;word&quot;:2}" style="fill: rgb(0,0,0);"></path><path d="M166.43717,276.86021h-1.42049l-2.2085,7.97339h1.47233l0.41474,-1.41012h2.0426l0.40437,1.41012h1.47233zM165.04779,282.02373l0.66359,-2.95503l0.66359,2.95503z" data-paper-data="{&quot;glyphName&quot;:&quot;A&quot;,&quot;glyphIndex&quot;:9,&quot;word&quot;:2}" style="fill: rgb(0,0,0);"></path><path d="M175.67898,276.88094h-4.72805v1.27533h1.65896v6.67733h1.42049v-6.67733h1.6486z" data-paper-data="{&quot;glyphName&quot;:&quot;T&quot;,&quot;glyphIndex&quot;:10,&quot;word&quot;:2}" style="fill: rgb(0,0,0);"></path><path d="M182.73303,276.88094h-4.72805v1.27533h1.65896v6.67733h1.42049v-6.67733h1.6486z" data-paper-data="{&quot;glyphName&quot;:&quot;T&quot;,&quot;glyphIndex&quot;:11,&quot;word&quot;:2}" style="fill: rgb(0,0,0);"></path><path d="M188.02444,276.86021h-1.42049l-2.2085,7.97339h1.47233l0.41474,-1.41012h2.0426l0.40437,1.41012h1.47233zM186.63505,282.02373l0.66359,-2.95503l0.66359,2.95503z" data-paper-data="{&quot;glyphName&quot;:&quot;A&quot;,&quot;glyphIndex&quot;:12,&quot;word&quot;:2}" style="fill: rgb(0,0,0);"></path><path d="M198.39642,284.8336l-1.75228,-3.03798c0.96427,-0.31106 1.37901,-0.9539 1.37901,-2.13592v-0.41474c0,-1.69007 -0.90206,-2.39513 -2.83061,-2.39513h-2.01149v7.98376h1.43086v-2.80987h0.52879l1.58638,2.80987zM194.60154,280.70693v-2.54029h0.61174c1.10943,0 1.30643,0.394 1.30643,1.15091v0.26958c0,0.7569 -0.29032,1.1198 -1.32717,1.1198z" data-paper-data="{&quot;glyphName&quot;:&quot;R&quot;,&quot;glyphIndex&quot;:13,&quot;word&quot;:2}" style="fill: rgb(0,0,0);"></path><path d="M204.49656,276.86021h-1.42049l-2.2085,7.97339h1.47233l0.41474,-1.41012h2.0426l0.40437,1.41012h1.47233zM203.10718,282.02373l0.66359,-2.95503l0.66359,2.95503z" data-paper-data="{&quot;glyphName&quot;:&quot;A&quot;,&quot;glyphIndex&quot;:14,&quot;word&quot;:2}" style="fill: rgb(0,0,0);"></path><path d="M211.0944,276.86021h-1.44122v7.98376h1.44122z" data-paper-data="{&quot;glyphName&quot;:&quot;I&quot;,&quot;glyphIndex&quot;:15,&quot;lastGlyphOfWord&quot;:true,&quot;word&quot;:2}" style="fill: rgb(0,0,0);"></path><path d="M225.23361,283.61011c-0.70506,-0.01037 -0.86059,-0.47695 -0.86059,-1.00575v-1.42049h0.81911v-1.26496h-3.15203c-0.52879,0 -0.93317,-0.46658 -0.93317,-0.97464c0,-0.50806 0.394,-0.93317 0.93317,-0.93317c0.49769,0 0.9228,0.18663 0.90206,0.82948h1.37901c0.04147,-1.33754 -0.77764,-2.15665 -2.28108,-2.15665c-1.33754,0 -2.38476,0.99538 -2.38476,2.2396c0,0.74653 0.29032,1.33754 0.97464,1.63823c-0.81911,0.33179 -1.34791,1.14054 -1.34791,1.95965c0,1.73154 0.98501,2.47808 2.58176,2.47808c0.64285,0 1.50344,-0.33179 1.81449,-1.00575c0.20737,0.63248 0.70506,0.9539 1.56565,0.98501zM222.97327,282.58363c0,0.7258 -0.53916,1.07833 -1.08869,1.07833c-0.65322,0 -1.15091,-0.40437 -1.14054,-1.19238c0,-0.71543 0.50806,-1.2857 1.2857,-1.2857h0.94354z" data-paper-data="{&quot;glyphName&quot;:&quot;&amp;&quot;,&quot;glyphIndex&quot;:16,&quot;firstGlyphOfWord&quot;:true,&quot;lastGlyphOfWord&quot;:true,&quot;word&quot;:3}" style="fill: rgb(0,0,0);"></path><path d="M235.86826,276.86021h-1.42049l-2.2085,7.97339h1.47233l0.41474,-1.41012h2.0426l0.40437,1.41012h1.47233zM234.47888,282.02373l0.66359,-2.95503l0.66359,2.95503z" data-paper-data="{&quot;glyphName&quot;:&quot;A&quot;,&quot;glyphIndex&quot;:17,&quot;firstGlyphOfWord&quot;:true,&quot;word&quot;:4}" style="fill: rgb(0,0,0);"></path><path d="M244.47759,278.93391h1.44122c-0.13479,-1.59675 -1.08869,-2.12555 -2.52992,-2.12555c-1.63823,0 -2.55066,0.77764 -2.55066,2.27071c0,1.6486 0.9539,2.09444 1.85597,2.2085c0.85022,0.11405 1.97002,0.11405 1.97002,1.05759c0,0.90206 -0.394,1.26496 -1.25459,1.26496c-0.91243,0 -1.18201,-0.33179 -1.21312,-0.94354h-1.44122c0,1.2857 0.63248,2.24997 2.62324,2.24997c1.91818,0 2.71655,-0.77764 2.71655,-2.62324c0,-1.59675 -0.88132,-1.97002 -1.80412,-2.11518c-1.21312,-0.18663 -2.01149,-0.10369 -2.01149,-1.10943c0,-0.7569 0.32142,-1.00575 1.10943,-1.00575c0.69469,0 1.04722,0.197 1.08869,0.87096z" data-paper-data="{&quot;glyphName&quot;:&quot;S&quot;,&quot;glyphIndex&quot;:18,&quot;word&quot;:4}" style="fill: rgb(0,0,0);"></path><path d="M252.90029,278.93391h1.44122c-0.13479,-1.59675 -1.08869,-2.12555 -2.52992,-2.12555c-1.63823,0 -2.55066,0.77764 -2.55066,2.27071c0,1.6486 0.9539,2.09444 1.85597,2.2085c0.85022,0.11405 1.97002,0.11405 1.97002,1.05759c0,0.90206 -0.394,1.26496 -1.25459,1.26496c-0.91243,0 -1.18201,-0.33179 -1.21312,-0.94354h-1.44122c0,1.2857 0.63248,2.24997 2.62324,2.24997c1.91818,0 2.71655,-0.77764 2.71655,-2.62324c0,-1.59675 -0.88132,-1.97002 -1.80412,-2.11518c-1.21312,-0.18663 -2.01149,-0.10369 -2.01149,-1.10943c0,-0.7569 0.32142,-1.00575 1.10943,-1.00575c0.69469,0 1.04722,0.197 1.08869,0.87096z" data-paper-data="{&quot;glyphName&quot;:&quot;S&quot;,&quot;glyphIndex&quot;:19,&quot;word&quot;:4}" style="fill: rgb(0,0,0);"></path><path d="M260.42092,284.90618c1.89744,0 2.72692,-0.73617 2.72692,-2.38476v-3.38014c0,-1.69007 -0.79838,-2.38476 -2.72692,-2.38476c-1.92855,0 -2.66471,0.69469 -2.66471,2.38476v3.38014c0,1.6486 0.76727,2.38476 2.66471,2.38476zM260.42092,283.64122c-1.03685,0 -1.23385,-0.43548 -1.23385,-1.19238v-3.23498c0,-0.7258 0.197,-1.19238 1.23385,-1.19238c1.10943,0 1.29607,0.46658 1.29607,1.19238v3.23498c0,0.7569 -0.25921,1.19238 -1.29607,1.19238z" data-paper-data="{&quot;glyphName&quot;:&quot;O&quot;,&quot;glyphIndex&quot;:20,&quot;word&quot;:4}" style="fill: rgb(0,0,0);"></path><path d="M270.52332,282.36589c0,0.78801 -0.25921,1.22349 -1.29607,1.22349c-1.03685,0 -1.23385,-0.43548 -1.23385,-1.19238v-3.10019c0,-0.7569 0.197,-1.19238 1.23385,-1.19238c1.10943,0 1.29607,0.43548 1.29607,1.21312h1.43086c0,-1.77302 -0.79838,-2.47808 -2.72692,-2.47808c-1.92855,0 -2.66471,0.69469 -2.66471,2.38476v3.24535c0,1.6486 0.76727,2.38476 2.66471,2.38476c1.89744,0 2.72692,-0.73617 2.72692,-2.48845z" data-paper-data="{&quot;glyphName&quot;:&quot;C&quot;,&quot;glyphIndex&quot;:21,&quot;word&quot;:4}" style="fill: rgb(0,0,0);"></path><path d="M276.73752,276.86021h-1.44122v7.98376h1.44122z" data-paper-data="{&quot;glyphName&quot;:&quot;I&quot;,&quot;glyphIndex&quot;:22,&quot;word&quot;:4}" style="fill: rgb(0,0,0);"></path><path d="M283.34573,276.86021h-1.42049l-2.2085,7.97339h1.47233l0.41474,-1.41012h2.0426l0.40437,1.41012h1.47233zM281.95634,282.02373l0.66359,-2.95503l0.66359,2.95503z" data-paper-data="{&quot;glyphName&quot;:&quot;A&quot;,&quot;glyphIndex&quot;:23,&quot;word&quot;:4}" style="fill: rgb(0,0,0);"></path><path d="M292.58754,276.88094h-4.72805v1.27533h1.65896v6.67733h1.42049v-6.67733h1.6486z" data-paper-data="{&quot;glyphName&quot;:&quot;T&quot;,&quot;glyphIndex&quot;:24,&quot;word&quot;:4}" style="fill: rgb(0,0,0);"></path><path d="M295.55639,276.84984v7.99413h4.73842v-1.30643h-3.30756v-2.10481h2.69582v-1.2857h-2.69582v-2.05297h3.1624v-1.24422z" data-paper-data="{&quot;glyphName&quot;:&quot;E&quot;,&quot;glyphIndex&quot;:25,&quot;word&quot;:4}" style="fill: rgb(0,0,0);"></path><path d="M306.94449,278.93391h1.44122c-0.13479,-1.59675 -1.08869,-2.12555 -2.52992,-2.12555c-1.63823,0 -2.55066,0.77764 -2.55066,2.27071c0,1.6486 0.9539,2.09444 1.85597,2.2085c0.85022,0.11405 1.97002,0.11405 1.97002,1.05759c0,0.90206 -0.394,1.26496 -1.25459,1.26496c-0.91243,0 -1.18201,-0.33179 -1.21312,-0.94354h-1.44122c0,1.2857 0.63248,2.24997 2.62324,2.24997c1.91818,0 2.71655,-0.77764 2.71655,-2.62324c0,-1.59675 -0.88132,-1.97002 -1.80412,-2.11518c-1.21312,-0.18663 -2.01149,-0.10369 -2.01149,-1.10943c0,-0.7569 0.32142,-1.00575 1.10943,-1.00575c0.69469,0 1.04722,0.197 1.08869,0.87096z" data-paper-data="{&quot;glyphName&quot;:&quot;S&quot;,&quot;glyphIndex&quot;:26,&quot;lastGlyphOfWord&quot;:true,&quot;word&quot;:4}" style="fill: rgb(0,0,0);"></path><path d="M320.52379,282.36589c0,0.78801 -0.25921,1.22349 -1.29607,1.22349c-1.03685,0 -1.23385,-0.43548 -1.23385,-1.19238v-3.10019c0,-0.7569 0.197,-1.19238 1.23385,-1.19238c1.10943,0 1.29607,0.43548 1.29607,1.21312h1.43086c0,-1.77302 -0.79838,-2.47808 -2.72692,-2.47808c-1.92855,0 -2.66471,0.69469 -2.66471,2.38476v3.24535c0,1.6486 0.76727,2.38476 2.66471,2.38476c1.89744,0 2.72692,-0.73617 2.72692,-2.48845z" data-paper-data="{&quot;glyphName&quot;:&quot;C&quot;,&quot;glyphIndex&quot;:27,&quot;firstGlyphOfWord&quot;:true,&quot;word&quot;:5}" style="fill: rgb(0,0,0);"></path><path d="M330.64693,276.84984h-1.42049v3.39051h-2.48845v-3.39051h-1.44122v7.99413h1.44122v-3.29719h2.48845v3.28682h1.42049z" data-paper-data="{&quot;glyphName&quot;:&quot;H&quot;,&quot;glyphIndex&quot;:28,&quot;word&quot;:5}" style="fill: rgb(0,0,0);"></path><path d="M337.24477,276.86021h-1.42049l-2.2085,7.97339h1.47233l0.41474,-1.41012h2.0426l0.40437,1.41012h1.47233zM335.85538,282.02373l0.66359,-2.95503l0.66359,2.95503z" data-paper-data="{&quot;glyphName&quot;:&quot;A&quot;,&quot;glyphIndex&quot;:29,&quot;word&quot;:5}" style="fill: rgb(0,0,0);"></path><path d="M347.61675,284.8336l-1.75228,-3.03798c0.96427,-0.31106 1.37901,-0.9539 1.37901,-2.13592v-0.41474c0,-1.69007 -0.90206,-2.39513 -2.83061,-2.39513h-2.01149v7.98376h1.43086v-2.80987h0.52879l1.58638,2.80987zM343.82187,280.70693v-2.54029h0.61174c1.10943,0 1.30643,0.394 1.30643,1.15091v0.26958c0,0.7569 -0.29032,1.1198 -1.32717,1.1198z" data-paper-data="{&quot;glyphName&quot;:&quot;R&quot;,&quot;glyphIndex&quot;:30,&quot;word&quot;:5}" style="fill: rgb(0,0,0);"></path><path d="M354.68117,276.88094h-4.72805v1.27533h1.65896v6.67733h1.42049v-6.67733h1.6486z" data-paper-data="{&quot;glyphName&quot;:&quot;T&quot;,&quot;glyphIndex&quot;:31,&quot;word&quot;:5}" style="fill: rgb(0,0,0);"></path><path d="M357.65002,276.84984v7.99413h4.73842v-1.30643h-3.30756v-2.10481h2.69582v-1.2857h-2.69582v-2.05297h3.1624v-1.24422z" data-paper-data="{&quot;glyphName&quot;:&quot;E&quot;,&quot;glyphIndex&quot;:32,&quot;word&quot;:5}" style="fill: rgb(0,0,0);"></path><path d="M370.87334,284.8336l-1.75228,-3.03798c0.96427,-0.31106 1.37901,-0.9539 1.37901,-2.13592v-0.41474c0,-1.69007 -0.90206,-2.39513 -2.83061,-2.39513h-2.01149v7.98376h1.43086v-2.80987h0.52879l1.58638,2.80987zM367.07846,280.70693v-2.54029h0.61174c1.10943,0 1.30643,0.394 1.30643,1.15091v0.26958c0,0.7569 -0.29032,1.1198 -1.32717,1.1198z" data-paper-data="{&quot;glyphName&quot;:&quot;R&quot;,&quot;glyphIndex&quot;:33,&quot;word&quot;:5}" style="fill: rgb(0,0,0);"></path><path d="M373.97699,276.84984v7.99413h4.73842v-1.30643h-3.30756v-2.10481h2.69582v-1.2857h-2.69582v-2.05297h3.1624v-1.24422z" data-paper-data="{&quot;glyphName&quot;:&quot;E&quot;,&quot;glyphIndex&quot;:34,&quot;word&quot;:5}" style="fill: rgb(0,0,0);"></path><path d="M381.99531,276.84984v7.98376h2.62324c1.89744,0 2.72692,-0.69469 2.72692,-2.34329v-3.25572c0,-1.69007 -0.79838,-2.38476 -2.72692,-2.38476zM383.4158,283.53754v-5.38126h1.22349c1.10943,0 1.27533,0.394 1.27533,1.15091v3.11056c0,0.7569 -0.25921,1.1198 -1.29607,1.1198z" data-paper-data="{&quot;glyphName&quot;:&quot;D&quot;,&quot;glyphIndex&quot;:35,&quot;lastGlyphOfWord&quot;:true,&quot;word&quot;:5}" style="fill: rgb(0,0,0);"></path><path d="M398.2186,276.86021h-1.42049l-2.2085,7.97339h1.47233l0.41474,-1.41012h2.0426l0.40437,1.41012h1.47233zM396.82921,282.02373l0.66359,-2.95503l0.66359,2.95503z" data-paper-data="{&quot;glyphName&quot;:&quot;A&quot;,&quot;glyphIndex&quot;:36,&quot;firstGlyphOfWord&quot;:true,&quot;word&quot;:6}" style="fill: rgb(0,0,0);"></path><path d="M407.22193,282.36589c0,0.78801 -0.25921,1.22349 -1.29607,1.22349c-1.03685,0 -1.23385,-0.43548 -1.23385,-1.19238v-3.10019c0,-0.7569 0.197,-1.19238 1.23385,-1.19238c1.10943,0 1.29607,0.43548 1.29607,1.21312h1.43086c0,-1.77302 -0.79838,-2.47808 -2.72692,-2.47808c-1.92855,0 -2.66471,0.69469 -2.66471,2.38476v3.24535c0,1.6486 0.76727,2.38476 2.66471,2.38476c1.89744,0 2.72692,-0.73617 2.72692,-2.48845z" data-paper-data="{&quot;glyphName&quot;:&quot;C&quot;,&quot;glyphIndex&quot;:37,&quot;word&quot;:6}" style="fill: rgb(0,0,0);"></path><path d="M415.66536,282.36589c0,0.78801 -0.25921,1.22349 -1.29607,1.22349c-1.03685,0 -1.23385,-0.43548 -1.23385,-1.19238v-3.10019c0,-0.7569 0.197,-1.19238 1.23385,-1.19238c1.10943,0 1.29607,0.43548 1.29607,1.21312h1.43086c0,-1.77302 -0.79838,-2.47808 -2.72692,-2.47808c-1.92855,0 -2.66471,0.69469 -2.66471,2.38476v3.24535c0,1.6486 0.76727,2.38476 2.66471,2.38476c1.89744,0 2.72692,-0.73617 2.72692,-2.48845z" data-paper-data="{&quot;glyphName&quot;:&quot;C&quot;,&quot;glyphIndex&quot;:38,&quot;word&quot;:6}" style="fill: rgb(0,0,0);"></path><path d="M422.81273,284.90618c1.89744,0 2.72692,-0.73617 2.72692,-2.38476v-3.38014c0,-1.69007 -0.79838,-2.38476 -2.72692,-2.38476c-1.92855,0 -2.66471,0.69469 -2.66471,2.38476v3.38014c0,1.6486 0.76727,2.38476 2.66471,2.38476zM422.81273,283.64122c-1.03685,0 -1.23385,-0.43548 -1.23385,-1.19238v-3.23498c0,-0.7258 0.197,-1.19238 1.23385,-1.19238c1.10943,0 1.29607,0.46658 1.29607,1.19238v3.23498c0,0.7569 -0.25921,1.19238 -1.29607,1.19238z" data-paper-data="{&quot;glyphName&quot;:&quot;O&quot;,&quot;glyphIndex&quot;:39,&quot;word&quot;:6}" style="fill: rgb(0,0,0);"></path><path d="M432.83218,282.397c0,0.7569 -0.40437,1.24422 -1.25459,1.24422c-0.85022,0 -1.18201,-0.48732 -1.18201,-1.24422v-5.53679h-1.43086v5.60937c0,1.6486 0.93317,2.4366 2.61287,2.4366c1.6797,0 2.68545,-0.78801 2.68545,-2.4366v-5.60937h-1.43086z" data-paper-data="{&quot;glyphName&quot;:&quot;U&quot;,&quot;glyphIndex&quot;:40,&quot;word&quot;:6}" style="fill: rgb(0,0,0);"></path><path d="M442.85163,276.86021h-1.42049v1.88707l0.15553,3.36977l-2.34329,-5.25684h-1.42049v7.97339h1.42049v-2.03223l-0.12442,-3.02761l2.34329,5.05984h1.38938z" data-paper-data="{&quot;glyphName&quot;:&quot;N&quot;,&quot;glyphIndex&quot;:41,&quot;word&quot;:6}" style="fill: rgb(0,0,0);"></path><path d="M450.53816,276.88094h-4.72805v1.27533h1.65896v6.67733h1.42049v-6.67733h1.6486z" data-paper-data="{&quot;glyphName&quot;:&quot;T&quot;,&quot;glyphIndex&quot;:42,&quot;word&quot;:6}" style="fill: rgb(0,0,0);"></path><path d="M455.82957,276.86021h-1.42049l-2.2085,7.97339h1.47233l0.41474,-1.41012h2.0426l0.40437,1.41012h1.47233zM454.44018,282.02373l0.66359,-2.95503l0.66359,2.95503z" data-paper-data="{&quot;glyphName&quot;:&quot;A&quot;,&quot;glyphIndex&quot;:43,&quot;word&quot;:6}" style="fill: rgb(0,0,0);"></path><path d="M466.00454,276.86021h-1.42049v1.88707l0.15553,3.36977l-2.34329,-5.25684h-1.42049v7.97339h1.42049v-2.03223l-0.12442,-3.02761l2.34329,5.05984h1.38938z" data-paper-data="{&quot;glyphName&quot;:&quot;N&quot;,&quot;glyphIndex&quot;:44,&quot;word&quot;:6}" style="fill: rgb(0,0,0);"></path><path d="M473.69108,276.88094h-4.72805v1.27533h1.65896v6.67733h1.42049v-6.67733h1.6486z" data-paper-data="{&quot;glyphName&quot;:&quot;T&quot;,&quot;glyphIndex&quot;:45,&quot;word&quot;:6}" style="fill: rgb(0,0,0);"></path><path d="M480.11265,278.93391h1.44122c-0.13479,-1.59675 -1.08869,-2.12555 -2.52992,-2.12555c-1.63823,0 -2.55066,0.77764 -2.55066,2.27071c0,1.6486 0.9539,2.09444 1.85597,2.2085c0.85022,0.11405 1.97002,0.11405 1.97002,1.05759c0,0.90206 -0.394,1.26496 -1.25459,1.26496c-0.91243,0 -1.18201,-0.33179 -1.21312,-0.94354h-1.44122c0,1.2857 0.63248,2.24997 2.62324,2.24997c1.91818,0 2.71655,-0.77764 2.71655,-2.62324c0,-1.59675 -0.88132,-1.97002 -1.80412,-2.11518c-1.21312,-0.18663 -2.01149,-0.10369 -2.01149,-1.10943c0,-0.7569 0.32142,-1.00575 1.10943,-1.00575c0.69469,0 1.04722,0.197 1.08869,0.87096z" data-paper-data="{&quot;glyphName&quot;:&quot;S&quot;,&quot;glyphIndex&quot;:46,&quot;lastGlyphOfWord&quot;:true,&quot;word&quot;:6}" style="fill: rgb(0,0,0);"></path></g><g data-paper-data="{&quot;isPrimaryText&quot;:true}"><path d="M134.00071,196.09791h-10.99369v-10.99369h-20.6391c-16.59425,0 -31.11422,11.30483 -35.26279,27.48423c-1.452,5.9117 -1.452,11.82341 0,17.63139c4.14856,16.28311 18.46111,27.58795 35.26279,27.58795h20.6391v-11.09741h10.99369v-17.63139h-17.73511v21.98738h-13.89769c-13.58654,0 -25.40995,-9.23055 -28.7288,-22.40224c-1.24457,-4.87456 -1.14085,-9.85284 0,-14.51997c3.31885,-13.17169 15.14226,-22.40224 28.7288,-22.40224h13.89769v4.35599h-13.2754c-12.03083,0 -22.50596,7.77856 -25.20252,18.97968c-0.93343,4.14856 -1.14085,8.50455 0,12.65312c2.80028,11.30483 13.17169,19.08339 25.20252,19.08339h10.47512v-6.74142h-10.47512c-9.02312,0 -16.69797,-5.60056 -18.66853,-14.0014c-0.82971,-3.11142 -0.82971,-6.22284 0,-9.33427c1.97057,-8.40084 9.64541,-14.0014 18.66853,-14.0014h24.26909v4.35599h-4.25228v-1.452h-6.74142v8.0897h17.73511zM123.00702,235.71669h4.25228v4.35599h-4.25228z" data-paper-data="{&quot;glyphName&quot;:&quot;C&quot;,&quot;glyphIndex&quot;:0,&quot;firstGlyphOfWord&quot;:true,&quot;word&quot;:1}" style="fill: rgb(0,0,0);"></path><path d="M207.01542,237.2724l2.69657,6.6377h1.76314l3.21514,7.25999h-4.77085l-7.98598,-18.35739h12.13455l-21.15767,-47.50105l-5.70427,13.06797l-5.70427,-13.2754l-21.05396,47.70848h11.92712l-1.97057,4.35599h-11.92712l-9.02312,20.6391h19.29082l4.87456,-11.20112h-7.25999l-1.97057,4.56342h-4.77085l3.21514,-7.3637h36.71478l6.01542,14.0014h19.29082l-9.02312,-20.53539zM181.39804,201.59476l2.178,5.1857l-8.40084,19.39453h-4.56342zM182.5389,232.81269h12.23826l1.97057,4.45971l-19.08339,-0.10371l9.5417,-22.0911l3.62999,8.40084h7.15627l-7.15627,-16.69797l2.178,-5.08199l10.88998,24.47652h-18.46111z" data-paper-data="{&quot;glyphName&quot;:&quot;A&quot;,&quot;glyphIndex&quot;:1,&quot;word&quot;:1}" style="fill: rgb(0,0,0);"></path><path d="M251.61247,185.0005v10.88998h-10.88998v23.43938h10.88998v4.25228h-10.88998v34.12193h17.42397v-38.37421h25.92852c6.32656,0 11.71969,-5.39313 11.71969,-11.71969c0,-6.32656 -5.39313,-11.71969 -11.71969,-11.71969h-23.02453v6.6377h23.02453c2.80028,0 5.08199,2.28171 5.08199,5.08199c0,2.80028 -2.28171,5.08199 -5.08199,5.08199h-36.71478v-10.16398h4.25228v7.46741h6.53399v-18.35739h25.92852c8.8157,0 15.97197,7.15627 15.97197,15.97197c0,8.8157 -7.15627,15.97197 -15.97197,15.97197h-23.02453v6.6377h23.02453c12.44569,0 22.60967,-10.16398 22.60967,-22.60967c0,-12.44569 -10.16398,-22.60967 -22.60967,-22.60967zM251.61247,251.17009h-4.25228v-20.95024h4.25228z" data-paper-data="{&quot;glyphName&quot;:&quot;P&quot;,&quot;glyphIndex&quot;:2,&quot;word&quot;:1}" style="fill: rgb(0,0,0);"></path><path d="M393.2888,206.88417c0,-12.03083 -9.74912,-21.77996 -21.77996,-21.77996h-36.40364v11.51226h-11.51226v20.43167v0.10371h11.51226v8.60827h-11.51226v20.53539h11.51226v11.51226h36.40364c12.03083,0 21.77996,-9.74912 21.77996,-21.77996c0,-5.39313 -1.97057,-10.47512 -5.60056,-14.51997c3.62999,-4.04485 5.60056,-9.23055 5.60056,-14.62369zM335.1052,199.41676v14.93483h-8.71198v-14.93483zM350.97346,214.35159h-13.06797v-14.93483h33.60336c4.14856,0 7.46741,3.31885 7.46741,7.46741c0,2.90399 -1.55571,5.49685 -4.14856,6.6377c-1.24457,0.726 -3.42256,0.82971 -4.97828,0.82971zM371.81999,228.56042c4.04485,0.31114 7.15627,3.42256 7.15627,7.46741c0,4.14856 -3.31885,7.46741 -7.46741,7.46741h-33.60336v-14.93483zM326.39322,243.49524v-14.93483h8.71198v14.93483zM337.90548,255.00751v-8.71198h33.60336c5.49685,0 10.26769,-4.45971 10.26769,-10.26769c0,-5.80799 -4.77085,-10.26769 -10.26769,-10.26769h-33.60336v-8.60827h32.56622c6.01542,0 8.60827,-2.80028 9.43798,-4.14856c1.14085,-1.76314 1.86685,-3.73371 1.86685,-6.11913c0,-5.49685 -4.77085,-10.26769 -10.26769,-10.26769h-33.60336v-8.71198h33.60336c10.47512,0 18.97968,8.50455 18.97968,18.97968c0,6.32656 -2.69657,10.68255 -6.74142,14.51997l0.10371,0.10371c4.04485,3.83742 6.6377,8.19341 6.6377,14.51997c0,10.47512 -8.50455,18.97968 -18.97968,18.97968z" data-paper-data="{&quot;glyphName&quot;:&quot;B&quot;,&quot;glyphIndex&quot;:3,&quot;fontStyleEffect&quot;:true,&quot;word&quot;:1}" style="fill: rgb(0,0,0);"></path><path d="M462.20391,237.16869l-3.83742,-8.91941h12.86055l-19.1871,-42.93763l-6.11913,14.0014l-6.01542,-14.20883l-18.97968,43.14506h12.5494l-3.83742,8.8157h-12.65312l-9.12684,20.74282h15.86825l7.67484,-17.94254l29.03994,0.10371l7.67484,17.83882h15.86825l-9.12684,-20.6391zM412.11001,255.00751l6.74142,-15.14226h9.5417l-6.53399,15.14226zM466.87105,225.44899h-9.64541l-9.74912,-22.60967l4.56342,-10.57884zM437.72739,225.44899l8.19341,-19.08339l8.29713,19.08339zM439.80167,192.15677l4.66713,10.68255l-9.85284,22.60967h-9.43798zM436.48282,228.24927h18.87596l3.83742,8.8157h-26.5508zM479.62788,255.00751h-9.74912l-6.43027,-15.03854h9.5417z" data-paper-data="{&quot;glyphName&quot;:&quot;A&quot;,&quot;glyphIndex&quot;:4,&quot;lastGlyphOfWord&quot;:true,&quot;fontStyleEffect&quot;:true,&quot;word&quot;:1}" style="fill: rgb(0,0,0);"></path></g></g></g><g class="watermark-group" style="opacity:0.040000010281801224"><path class="watermark-path" d="M129.52,370.3a11.88,11.88,0,0,1,2.58,5.58,12,12,0,0,1,.11,3,11.81,11.81,0,0,1-.64,2.93,12.34,12.34,0,0,1-1.41,2.72,11.65,11.65,0,0,1-2.13,2.32,12,12,0,0,1-2.64,1.69,13,13,0,0,1-2.91.9,12.47,12.47,0,0,1-3,.12,12.17,12.17,0,0,1-2.93-.64,11.8,11.8,0,0,1-2.72-1.38,12.19,12.19,0,0,1-4-4.79,11.85,11.85,0,0,1-.89-2.92,12.14,12.14,0,0,1-.13-3,11.54,11.54,0,0,1,.64-2.92,11.67,11.67,0,0,1,3.5-5,11.44,11.44,0,0,1,2.67-1.69,11.64,11.64,0,0,1,2.92-.91,10.71,10.71,0,0,1,3-.12,11.68,11.68,0,0,1,5.66,2,11.7,11.7,0,0,1,2.34,2.12m-1.4,8.76a13,13,0,0,1-1.22,2.32,9.68,9.68,0,0,1-1.81,2,7.44,7.44,0,0,1-2.38,1.37,6.17,6.17,0,0,1-5.11-.46,8.73,8.73,0,0,1-3.85-4.58,6.69,6.69,0,0,1-.34-2.66,6.09,6.09,0,0,1,.77-2.47,7.15,7.15,0,0,1,1.75-2.11,9.58,9.58,0,0,1,1.09-.81,8.23,8.23,0,0,1,1.12-.63,8.14,8.14,0,0,1,1.19-.46,12.71,12.71,0,0,1,1.32-.37l2,2.38a12.83,12.83,0,0,0-1.56.17,7.86,7.86,0,0,0-1.23.32,4.5,4.5,0,0,0-1,.49,6.41,6.41,0,0,0-.93.67,4.49,4.49,0,0,0-1.15,1.39,3.87,3.87,0,0,0-.45,1.58,4.12,4.12,0,0,0,.26,1.63,6.11,6.11,0,0,0,2.36,2.82,4.43,4.43,0,0,0,1.57.53,3.91,3.91,0,0,0,1.62-.17,4.71,4.71,0,0,0,1.57-.89,10.5,10.5,0,0,0,.83-.79,5.71,5.71,0,0,0,.65-.93,10.13,10.13,0,0,0,.54-1.14,12.24,12.24,0,0,0,.44-1.49l2,2.33m-14.46,4.55a8.86,8.86,0,0,0,2.78,2.22,9,9,0,0,0,3.29.94,9.15,9.15,0,0,0,3.39-.37,8.68,8.68,0,0,0,3.11-1.69,8.8,8.8,0,0,0,2.22-2.78,9.15,9.15,0,0,0,1-3.29,8.95,8.95,0,0,0-4.83-8.76,9,9,0,0,0-6.73-.57,9,9,0,0,0-5.33,4.47,8.94,8.94,0,0,0-.57,6.71,8.76,8.76,0,0,0,1.7,3.12" style="fill: rgb(0,0,0);"></path><path class="watermark-path" d="M147,349c-.48.12-1.09.31-1.82.57a24.37,24.37,0,0,0-2.4,1A28.35,28.35,0,0,0,140,352a20.72,20.72,0,0,0-2.71,1.94c-.7.59-1.28,1.11-1.74,1.57a15.07,15.07,0,0,0-1.1,1.22,4.09,4.09,0,0,0-.59.92,2.32,2.32,0,0,0-.22.64,1.16,1.16,0,0,0,0,.47,1.83,1.83,0,0,0,.18.29,1.15,1.15,0,0,0,1,.37,5.54,5.54,0,0,0,1.51-.38q.87-.35,1.95-.9l2.26-1.18q1.2-.65,2.49-1.29c.87-.44,1.73-.83,2.59-1.17a18.94,18.94,0,0,1,2.6-.81,9.27,9.27,0,0,1,2.46-.29,6.25,6.25,0,0,1,2.24.49,5.12,5.12,0,0,1,1.89,1.47,6.35,6.35,0,0,1,1.41,2.61,6,6,0,0,1,.09,2.6,8.3,8.3,0,0,1-.9,2.52,17.79,17.79,0,0,1-1.62,2.37,23.92,23.92,0,0,1-2,2.15c-.72.67-1.41,1.29-2.09,1.87a33.79,33.79,0,0,1-5.33,3.7,32.29,32.29,0,0,1-4.91,2.28l-3.61-4.3a21.38,21.38,0,0,0,5.39-1.87,27.2,27.2,0,0,0,5.4-3.56,21.59,21.59,0,0,0,2.38-2.27,8.67,8.67,0,0,0,1.18-1.7,2.32,2.32,0,0,0,.27-1.19,1.34,1.34,0,0,0-.28-.74,1.21,1.21,0,0,0-1-.42,4.32,4.32,0,0,0-1.55.34,15.77,15.77,0,0,0-2,.88c-.72.37-1.48.77-2.27,1.21l-2.45,1.3c-.85.45-1.7.85-2.56,1.21a22.37,22.37,0,0,1-2.54.86,10,10,0,0,1-2.43.32,5.76,5.76,0,0,1-2.2-.45,5,5,0,0,1-1.89-1.45,6.12,6.12,0,0,1-1.31-2.41,6,6,0,0,1-.1-2.41,8.28,8.28,0,0,1,.81-2.38,14.06,14.06,0,0,1,1.49-2.24,22.37,22.37,0,0,1,1.85-2.05q1-1,2-1.77c.7-.59,1.44-1.15,2.23-1.7s1.62-1.06,2.44-1.53,1.63-.91,2.43-1.3,1.58-.75,2.3-1L147,349" style="fill: rgb(0,0,0);"></path><path class="watermark-path" d="M186.76,337.57l-10.6-12.63,3.92,18.24-4.66,3.91-17.27-7,10.6,12.63-4.86,4.07-15.09-18,6.59-5.54,18.69,7.52-4.15-19.71,6.57-5.52,15.09,18-4.83,4.05" style="fill: rgb(0,0,0);"></path><path class="watermark-path" d="M208.84,313.24l-10,8.42,1.16,4.82L194.56,331l-5.68-25.89,5.42-4.55,24.51,10.09-5.42,4.55-4.55-2m-11.23,3.45,6.57-5.52-8.83-3.87,2.26,9.39" style="fill: rgb(0,0,0);"></path><path class="watermark-path" d="M227.49,281.38c-.48.12-1.09.31-1.82.57a24.37,24.37,0,0,0-2.4,1,26.11,26.11,0,0,0-2.7,1.47,20.72,20.72,0,0,0-2.71,1.94c-.7.59-1.28,1.11-1.74,1.57a13.39,13.39,0,0,0-1.1,1.22,4.29,4.29,0,0,0-.59.91,2.48,2.48,0,0,0-.22.65,1.16,1.16,0,0,0,0,.47,1.83,1.83,0,0,0,.18.29,1.15,1.15,0,0,0,1,.37,5.54,5.54,0,0,0,1.51-.38q.87-.34,2-.9l2.26-1.18q1.2-.64,2.49-1.29c.87-.44,1.73-.83,2.59-1.17a18.94,18.94,0,0,1,2.6-.81,9.27,9.27,0,0,1,2.46-.29,6.08,6.08,0,0,1,2.24.49,5.09,5.09,0,0,1,1.89,1.46,6.47,6.47,0,0,1,1.41,2.61,6.07,6.07,0,0,1,.09,2.61,8.3,8.3,0,0,1-.9,2.52,16.32,16.32,0,0,1-1.63,2.36,21.41,21.41,0,0,1-2,2.16c-.72.67-1.41,1.29-2.1,1.86a33.36,33.36,0,0,1-5.32,3.71,31.92,31.92,0,0,1-4.92,2.28l-3.6-4.3a21.38,21.38,0,0,0,5.39-1.87,27.2,27.2,0,0,0,5.4-3.56,21.59,21.59,0,0,0,2.38-2.27,8.67,8.67,0,0,0,1.18-1.7A2.32,2.32,0,0,0,231,293a1.34,1.34,0,0,0-.28-.74,1.21,1.21,0,0,0-1-.42,4.32,4.32,0,0,0-1.55.34,16.54,16.54,0,0,0-2,.88c-.71.37-1.47.77-2.26,1.21l-2.46,1.3c-.84.44-1.7.85-2.55,1.21a24.53,24.53,0,0,1-2.54.86A10,10,0,0,1,214,298a5.76,5.76,0,0,1-2.2-.45,5,5,0,0,1-1.89-1.45,6.12,6.12,0,0,1-1.31-2.41,5.78,5.78,0,0,1-.1-2.41,8,8,0,0,1,.81-2.38,14.61,14.61,0,0,1,1.49-2.25,22.26,22.26,0,0,1,1.85-2q1-1,2-1.77c.7-.59,1.44-1.15,2.23-1.7s1.62-1.06,2.44-1.53,1.63-.91,2.43-1.31,1.58-.74,2.3-1l3.5,4.16" style="fill: rgb(0,0,0);"></path><path class="watermark-path" d="M261.64,274.74l-6.29-7.5L243,277.61l6.3,7.5-4.86,4.07-15.09-18,4.85-4.08,5.49,6.55L252,263.3l-5.49-6.55,4.86-4.07,15.09,18-4.86,4.08" style="fill: rgb(0,0,0);"></path><path class="watermark-path" d="M272.18,265.9l-15.09-18,4.86-4.08,15.09,18-4.86,4.08" style="fill: rgb(0,0,0);"></path><path class="watermark-path" d="M299.65,242.85l-22.51-2.18L287.51,253l-4.85,4.08-15.1-18,5.28-4.43,22.56,2.22L285,224.5l4.83-4.06,15.09,18-5.26,4.42" style="fill: rgb(0,0,0);"></path><path class="watermark-path" d="M306.68,205.52a31.88,31.88,0,0,1,5.29-3.66,34.48,34.48,0,0,1,5.14-2.35l3.69,4.39a20.77,20.77,0,0,0-2.37.61,20.47,20.47,0,0,0-2.61,1,25.12,25.12,0,0,0-2.76,1.49,23.9,23.9,0,0,0-2.8,2,20.42,20.42,0,0,0-2.8,2.77,12.77,12.77,0,0,0-1.64,2.52,7,7,0,0,0-.68,2.24,6,6,0,0,0,.66,3.64,8.16,8.16,0,0,0,.94,1.38,9.12,9.12,0,0,0,1.08,1.07,6.39,6.39,0,0,0,1.47.91,6.73,6.73,0,0,0,1.88.48,6.54,6.54,0,0,0,2.28-.18,11.67,11.67,0,0,0,2.74-1.07,19.38,19.38,0,0,0,3.18-2.22c.57-.48,1.06-.92,1.46-1.31a14.57,14.57,0,0,0,1-1.13,11.46,11.46,0,0,0,.81-1.05l.74-1.09-1.82-2.17-5.45,4.57-3.31-3.94,10.31-8.65,7.71,9.19a29,29,0,0,1-1.67,2.43q-1,1.26-2.1,2.52c-.74.84-1.5,1.65-2.3,2.44s-1.58,1.5-2.33,2.14a31,31,0,0,1-3.59,2.61,22.55,22.55,0,0,1-3.64,1.83,15.64,15.64,0,0,1-3.63.89,10.72,10.72,0,0,1-3.49-.15,10.45,10.45,0,0,1-3.28-1.33,12.54,12.54,0,0,1-3-2.67,12,12,0,0,1-2.08-3.44,10.45,10.45,0,0,1-.71-3.5,11.14,11.14,0,0,1,.51-3.51,15.72,15.72,0,0,1,1.56-3.43,21.62,21.62,0,0,1,2.42-3.28,30.3,30.3,0,0,1,3.15-3" style="fill: rgb(0,0,0);"></path><path class="watermark-path" d="M336.91,211.59l-15.1-18,4.86-4.08,11.79,14,13.13-11,3.31,3.94-18,15.1" style="fill: rgb(0,0,0);"></path><path class="watermark-path" d="M374.54,164.71a12.28,12.28,0,0,1,2.59,4.81,10.44,10.44,0,0,1,0,5,14.62,14.62,0,0,1-2.33,5,25.55,25.55,0,0,1-4.56,4.85,26.07,26.07,0,0,1-5.6,3.67,14.79,14.79,0,0,1-5.38,1.43,10.43,10.43,0,0,1-4.94-.89,13.24,13.24,0,0,1-6.87-8.18,10.48,10.48,0,0,1,0-5,14.51,14.51,0,0,1,2.36-5,25.23,25.23,0,0,1,4.57-4.89,25,25,0,0,1,5.59-3.64,14.45,14.45,0,0,1,5.35-1.43,10.31,10.31,0,0,1,4.93.92,12.22,12.22,0,0,1,4.28,3.38m-4.91,4.11a8.36,8.36,0,0,0-2-1.72,5.5,5.5,0,0,0-2.65-.85,7.72,7.72,0,0,0-3.32.57,14.49,14.49,0,0,0-4,2.52,16.72,16.72,0,0,0-2.38,2.4,10.15,10.15,0,0,0-1.39,2.24,6.71,6.71,0,0,0-.56,2.1,5.69,5.69,0,0,0,.1,1.9,6.21,6.21,0,0,0,.61,1.69,9.85,9.85,0,0,0,1,1.44,10.48,10.48,0,0,0,1.26,1.23,6.67,6.67,0,0,0,1.57.92,6.1,6.1,0,0,0,1.85.41,6.8,6.8,0,0,0,2.15-.2,11.06,11.06,0,0,0,2.45-1,17.67,17.67,0,0,0,2.77-1.94,14.39,14.39,0,0,0,3.18-3.52,7.74,7.74,0,0,0,1.14-3.17,5.54,5.54,0,0,0-.37-2.74,8.52,8.52,0,0,0-1.36-2.3" style="fill: rgb(0,0,0);"></path><path class="watermark-path" d="M382.66,141.76A32.3,32.3,0,0,1,388,138.1a34.12,34.12,0,0,1,5.15-2.35l3.69,4.4a19.62,19.62,0,0,0-2.37.6,22.08,22.08,0,0,0-2.61,1,26,26,0,0,0-2.77,1.49,23.9,23.9,0,0,0-2.8,2,21,21,0,0,0-2.8,2.78,13.19,13.19,0,0,0-1.64,2.51,7.29,7.29,0,0,0-.68,2.24,6.36,6.36,0,0,0,.06,2,5.8,5.8,0,0,0,.61,1.68,8.12,8.12,0,0,0,.93,1.38,9.16,9.16,0,0,0,1.08,1.08,6.56,6.56,0,0,0,1.48.9,6,6,0,0,0,1.87.48,6.76,6.76,0,0,0,2.28-.17,12,12,0,0,0,2.74-1.08,18.57,18.57,0,0,0,3.18-2.22c.58-.48,1.06-.92,1.46-1.31s.75-.77,1.05-1.12.57-.72.81-1.06l.73-1.09-1.82-2.17-5.45,4.57-3.3-3.94,10.3-8.65,7.71,9.19a29,29,0,0,1-1.67,2.43q-1,1.26-2.1,2.52c-.73.84-1.5,1.66-2.3,2.44s-1.57,1.5-2.33,2.14a31,31,0,0,1-3.59,2.61,22.15,22.15,0,0,1-3.64,1.83,15.56,15.56,0,0,1-3.62.89,11,11,0,0,1-3.49-.14,10.84,10.84,0,0,1-3.28-1.33,12.82,12.82,0,0,1-3-2.68,12.12,12.12,0,0,1-2.08-3.43A10.71,10.71,0,0,1,375,155a11.18,11.18,0,0,1,.51-3.51,15.51,15.51,0,0,1,1.57-3.43,21.44,21.44,0,0,1,2.42-3.28,30.19,30.19,0,0,1,3.14-3" style="fill: rgb(0,0,0);"></path><path class="watermark-path" d="M428.63,119.31a12.26,12.26,0,0,1,2.59,4.82,10.44,10.44,0,0,1,0,5,14.53,14.53,0,0,1-2.34,5,25.29,25.29,0,0,1-4.56,4.86,26,26,0,0,1-5.59,3.67,14.84,14.84,0,0,1-5.38,1.43,10.61,10.61,0,0,1-4.95-.89,12.15,12.15,0,0,1-4.3-3.37,12,12,0,0,1-2.56-4.81,10.48,10.48,0,0,1,0-5,14.39,14.39,0,0,1,2.35-5,27.89,27.89,0,0,1,10.16-8.53,14.49,14.49,0,0,1,5.36-1.43,10.27,10.27,0,0,1,4.92.92,12.21,12.21,0,0,1,4.28,3.37m-4.91,4.12a8.17,8.17,0,0,0-2-1.72,5.58,5.58,0,0,0-2.65-.86,7.86,7.86,0,0,0-3.31.58,14.49,14.49,0,0,0-4,2.52,16.21,16.21,0,0,0-2.38,2.4,9.85,9.85,0,0,0-1.4,2.24,7,7,0,0,0-.56,2.1,6,6,0,0,0,.1,1.9,6.23,6.23,0,0,0,.62,1.69,8.49,8.49,0,0,0,1,1.44,9.18,9.18,0,0,0,1.26,1.23,6.67,6.67,0,0,0,1.57.92,6,6,0,0,0,1.84.41,6.86,6.86,0,0,0,2.16-.2,11.26,11.26,0,0,0,2.45-1,17.62,17.62,0,0,0,2.76-1.94,14.67,14.67,0,0,0,3.19-3.52,7.71,7.71,0,0,0,1.13-3.17,5.53,5.53,0,0,0-.36-2.74,8.55,8.55,0,0,0-1.37-2.3" style="fill: rgb(0,0,0);"></path></g></svg>